<?xml version="1.0" encoding="utf-8"?>
<!-- Generator: Adobe Illustrator 22.1.0, SVG Export Plug-In . SVG Version: 6.00 Build 0)  -->
<svg version="1.1" id="Layer_1" xmlns="http://www.w3.org/2000/svg" xmlns:xlink="http://www.w3.org/1999/xlink" x="0px" y="0px"
	 viewBox="0 0 342 418" style="enable-background:new 0 0 342 418;" xml:space="preserve">
<style type="text/css">
	.st0{fill:#FFFFFF;}
	.st1{fill:none;}
	.st2{font-family:'SourceSansPro-Light';}
	.st3{font-size:20.4841px;}
	.st4{fill:none;stroke:#FFFFFF;stroke-width:4;stroke-linecap:round;stroke-linejoin:round;stroke-miterlimit:10;}
	.st5{fill:none;stroke:#FFFFFF;stroke-width:5;stroke-linecap:round;stroke-linejoin:round;stroke-miterlimit:10;}
	.st6{fill:none;stroke:#FFFFFF;stroke-width:3;stroke-linecap:round;stroke-linejoin:round;stroke-miterlimit:10;}
	.st7{fill:#220A82;stroke:#FFFFFF;stroke-width:5;stroke-linecap:round;stroke-linejoin:round;stroke-miterlimit:10;}
	.st8{opacity:0.2;fill:#FFFFFF;}
</style>
<g>
	<g>
		<g>
			<path class="st0" d="M111.9,309.8h-5l-7.2,18.8h4.5l1.2-3.2h6.8l-1.2-3.5h-4.5l2.9-8.1l5.2,14.8h4.5 M187.9,328.5v-18.8h4V325
				h7.9v3.5L187.9,328.5L187.9,328.5L187.9,328.5z M211.1,328.5v-18.8h4V325h7.9v3.5L211.1,328.5L211.1,328.5z M165.7,313.1
				c3.3,0,6,2.7,6,6c0,3.3-2.7,6-6,6c-3.3,0-6-2.7-6-6C159.6,315.8,162.3,313.1,165.7,313.1 M165.7,309.5c-5.4,0-9.7,4.3-9.7,9.7
				c0,5.4,4.3,9.7,9.7,9.7c5.4,0,9.7-4.3,9.7-9.7S171,309.5,165.7,309.5z M241.5,313.1c3.3,0,6,2.7,6,6c0,3.3-2.7,6-6,6
				c-3.3,0-6-2.7-6-6C235.5,315.8,238.2,313.1,241.5,313.1 M241.5,309.5c-5.4,0-9.7,4.3-9.7,9.7c0,5.4,4.3,9.7,9.7,9.7
				c5.4,0,9.7-4.3,9.7-9.7S246.9,309.5,241.5,309.5L241.5,309.5z M139.6,309.8h-8.7v18.8h4v-6.5h4.8c3.3,0,6-2.8,6-6.2
				C145.6,312.6,142.9,309.8,139.6,309.8L139.6,309.8z M139.6,318.4h-4.8v-5h4.8c1.3,0,2.4,1.2,2.4,2.5
				C141.9,317.2,140.9,318.4,139.6,318.4L139.6,318.4z"/>
			<path class="st0" d="M127.4,334.2c-0.3,0-0.7,0.2-0.8,0.4c0,0-0.9,1-1.4,1.5c-2.1,2.1-4.4,3.7-7.1,4.8c-2.8,1.2-5.7,1.8-8.7,1.8
				c-3,0-6-0.6-8.7-1.8c-2.7-1.1-5.1-2.7-7.1-4.8c-2.1-2.1-3.7-4.4-4.8-7.1c-1.2-2.8-1.8-5.7-1.8-8.7c0-3,0.6-6,1.8-8.7
				c1.1-2.7,2.7-5.1,4.8-7.1c2.1-2.1,4.4-3.7,7.1-4.8c2.8-1.2,5.7-1.8,8.7-1.8c3,0,6,0.6,8.7,1.8c1.9,0.8,3.7,1.9,5.4,3.2
				c-0.1,0.3-0.1,0.5-0.1,0.8c0,1.4,1.1,2.5,2.5,2.5c1.4,0,2.5-1.1,2.5-2.5c0-1.4-1.1-2.5-2.5-2.5c-0.3,0-0.7,0.1-1,0.2
				c-4.2-3.5-9.6-5.5-15.5-5.5c-13.5,0-24.4,10.9-24.4,24.4c0,13.5,10.9,24.4,24.4,24.4c7.5,0,14.3-3.4,18.8-8.8
				c0.2-0.2,0.3-0.4,0.3-0.7C128.4,334.7,127.9,334.2,127.4,334.2L127.4,334.2z"/>
		</g>
		<rect x="177" y="334.8" class="st1" width="80.1" height="17.8"/>
	</g>
	<g>
		<path class="st4" d="M66.6,362"/>
		<path class="st4" d="M112.2,375.5"/>
	</g>
	<path class="st5" d="M184.8,98c31.4,2.9,59.9,15.4,82.7,34.6"/>
	<path class="st5" d="M315.8,208.9c3.2,12.2,4.9,24.9,4.9,38.1c0,82.7-67,149.7-149.7,149.7S21.3,329.7,21.3,247
		c0-77.5,58.9-141.2,134.4-148.9"/>
	<path class="st6" d="M165.4,277.6c-2.9,5.7,3.6,13.1,5.6,13.6c2.1-0.5,8.5-7.9,5.6-13.6"/>
	<path class="st6" d="M142.7,277.6c-2,3.9,2.4,8.9,3.8,9.3c1.4-0.3,5.8-5.4,3.8-9.3"/>
	<path class="st6" d="M199.4,277.6c2,3.9-2.4,8.9-3.8,9.3c-1.4-0.3-5.8-5.4-3.8-9.3"/>
	<line class="st6" x1="171" y1="21.3" x2="171" y2="31.3"/>
	<line class="st5" x1="161.2" y1="56.8" x2="161.2" y2="39.8"/>
	<line class="st6" x1="180.9" y1="56.8" x2="161.2" y2="56.8"/>
	<line class="st5" x1="180.9" y1="39.8" x2="180.9" y2="56.8"/>
	<polyline class="st5" points="148.1,142.8 156,126.8 186.1,126.8 194,142.8 	"/>
	<line class="st7" x1="148.1" y1="154.8" x2="148.1" y2="142.8"/>
	<line class="st6" x1="194" y1="154.8" x2="148.1" y2="154.8"/>
	<line class="st5" x1="194" y1="142.8" x2="194" y2="154.8"/>
	<line class="st5" x1="194" y1="154.8" x2="194" y2="228.2"/>
	<line class="st5" x1="148.1" y1="227" x2="148.1" y2="154.8"/>
	<line class="st5" x1="180.9" y1="56.8" x2="184.8" y2="97.3"/>
	<line class="st5" x1="157.3" y1="97.3" x2="161.2" y2="56.8"/>
	<polyline class="st5" points="184.8,97.3 186.1,126.8 156,126.8 157.3,97.3 	"/>
	<polyline class="st5" points="161.2,39.8 170.4,32.4 171.7,32.4 180.9,39.8 	"/>
	<line class="st6" x1="148.1" y1="200.2" x2="194" y2="200.2"/>
	<polygon class="st5" points="137.4,255.3 148.1,227.2 158.8,255.3 	"/>
	<polygon class="st5" points="183.3,255.3 194,227.2 204.7,255.3 	"/>
	<polygon class="st5" points="160.4,255.3 171,227.2 181.7,255.3 	"/>
	<polygon class="st6" points="144.2,237.3 129.7,245.1 129.7,250.3 139.3,250.3 	"/>
	<polygon class="st6" points="197.8,237.3 212.3,245.1 212.3,250.3 202.7,250.3 	"/>
	<line class="st6" x1="159.6" y1="254.7" x2="159.6" y2="200.2"/>
	<line class="st6" x1="182.5" y1="254.7" x2="182.5" y2="200.2"/>
	<line class="st6" x1="140.9" y1="255.3" x2="201.2" y2="255.3"/>
	<path class="st6" d="M149.1,255.6c3.7,4.9,6.1,10.3,7,16.2h-19.1c0.9-5.8,3.3-11.3,7-16.2"/>
	<path class="st6" d="M173.6,255.6c3.7,4.9,6.1,10.3,7,16.2h-19.1c0.9-5.8,3.3-11.3,7-16.2"/>
	<path class="st6" d="M198.1,255.6c3.7,4.9,6.1,10.3,7,16.2H186c0.9-5.8,3.3-11.3,7-16.2"/>
	<circle class="st5" cx="277.4" cy="142.8" r="12.1"/>
	<polygon class="st8" points="192.7,255.6 170.3,255.6 170.3,34.1 180.9,39.8 186.1,126.8 192.7,142.8 194,229.8 197.8,237.3 
		212.3,245.1 212.3,250.3 202.7,250.3 204.7,255.3 	"/>
	<g>
		<g>
			<line class="st6" x1="119.1" y1="147.8" x2="119.1" y2="156.1"/>
		</g>
		<line class="st6" x1="114.9" y1="152" x2="123.3" y2="152"/>
	</g>
	<g>
		<line class="st6" x1="245.3" y1="215" x2="245.3" y2="224.3"/>
		<line class="st6" x1="240.6" y1="219.7" x2="249.9" y2="219.7"/>
	</g>
	<g>
		<line class="st6" x1="74.4" y1="216.6" x2="74.4" y2="222.7"/>
		<line class="st6" x1="71.4" y1="219.7" x2="77.4" y2="219.7"/>
	</g>
	<path class="st6" d="M279.6,241.2c0,2.3-1.8,4.1-4.1,4.1c-2.3,0-4.1-1.8-4.1-4.1c0-2.3,1.8-4.1,4.1-4.1
		C277.8,237.1,279.6,239,279.6,241.2z"/>
	<path class="st6" d="M224.6,152c0,2.5-2,4.5-4.5,4.5c-2.5,0-4.5-2-4.5-4.5c0-2.5,2-4.5,4.5-4.5C222.6,147.4,224.6,149.5,224.6,152z
		"/>
	<circle class="st0" cx="106.6" cy="188.5" r="2.5"/>
	<path class="st0" d="M273.9,278.6c0,1.4-1.1,2.5-2.5,2.5c-1.4,0-2.5-1.1-2.5-2.5c0-1.4,1.1-2.5,2.5-2.5
		C272.8,276.1,273.9,277.2,273.9,278.6z"/>
	<circle class="st0" cx="227.5" cy="188.5" r="2.5"/>
	<circle class="st0" cx="109.1" cy="227" r="2.5"/>
	<circle class="st0" cx="235.5" cy="260" r="2.5"/>
	<circle class="st0" cx="74.4" cy="260" r="2.5"/>
	<line class="st6" x1="194" y1="142.8" x2="148.1" y2="142.8"/>
	<polygon class="st8" points="180.4,271.7 171,271.7 171,255.7 176.4,258.7 	"/>
	<polygon class="st8" points="203.9,271.7 186,271.7 193,255.6 199.9,258.7 	"/>
</g>
</svg>
